<?xml version="1.0" encoding="UTF-8"?>
<svg id="Layer_2" data-name="Layer 2" xmlns="http://www.w3.org/2000/svg" viewBox="0 0 358.77 156.2">
  <defs>
    <style>
      .cls-1 {
        fill: #69d1ff;
      }
    </style>
  </defs>
  <g id="Layer_1-2" data-name="Layer 1">
    <g>
      <path class="cls-1" d="M105.67,20.9c-10.33-7.8-24.83-11.7-43.5-11.7H16.42l16.63,23.17-16.51,18.67,16.63,20.43-16.5,15.69,16.53,18.33-16.42,16.47,16.52,13.96-11.39,12.28h29.66v-44.8h14.2c16.93,0,30.4-4.1,40.4-12.3,10-8.2,15-20.17,15-35.9s-5.17-26.5-15.5-34.3Zm-27.6,50.9c-3.53,3.47-8.77,5.2-15.7,5.2h-10.8V35.2h10c14.53,0,21.8,6.73,21.8,20.2,0,7.47-1.77,12.93-5.3,16.4Z"/>
      <path class="cls-1" d="M122.37,147.4c-5.47-5.6-8.2-13.67-8.2-24.2V3.6L149.77,0V122c0,3.87,1.73,5.8,5.2,5.8,1.47,0,3-.27,4.6-.8l6.6,25.2c-5.47,2.4-12.33,3.6-20.6,3.6-10,0-17.73-2.8-23.2-8.4Z"/>
      <path class="cls-1" d="M256.97,95.2h-65.2c.93,8.13,3.23,13.7,6.9,16.7,3.67,3,8.9,4.5,15.7,4.5,4,0,7.97-.77,11.9-2.3,3.93-1.53,8.23-3.9,12.9-7.1l14.4,19.6c-5.6,4.67-12,8.37-19.2,11.1-7.2,2.73-15,4.1-23.4,4.1-18.13,0-31.9-5.1-41.3-15.3-9.4-10.2-14.1-23.9-14.1-41.1,0-10.8,1.97-20.53,5.9-29.2,3.93-8.67,9.77-15.53,17.5-20.6,7.73-5.07,17.07-7.6,28-7.6,15.6,0,27.93,4.83,37,14.5,9.07,9.67,13.6,23.23,13.6,40.7,0,.8-.2,4.8-.6,12Zm-34.4-22c-.13-7.07-1.33-12.53-3.6-16.4-2.27-3.87-6.07-5.8-11.4-5.8-4.93,0-8.67,1.73-11.2,5.2-2.53,3.47-4.13,9.53-4.8,18.2h31v-1.2Z"/>
      <path class="cls-1" d="M325.17,99.2l33.6,57h-40l-16.2-38.2-15.4,38.2h-38.4l33.4-56-30.4-50.6h39.6l12.6,32.8,11.8-32.8h37.6l-28.2,49.6Z"/>
      <rect class="cls-1" y="9.2" width="14.66" height="139"/>
    </g>
  </g>
</svg>