<svg class="svg-icon" style="width: 1em; height: 1em;vertical-align: middle;fill: currentColor;overflow: hidden;" viewBox="0 0 1024 1024" version="1.1" xmlns="http://www.w3.org/2000/svg"><path d="M699.076923 246.153846h13.784615c19.692308 0 19.692308-13.784615 7.876924-25.6l-96.492308-96.492308c-11.815385-9.846154-11.815385-29.538462 0-41.353846l41.353846-41.353846c9.846154-11.815385 29.538462-11.815385 41.353846 0L960.984615 295.384615c9.846154 9.846154 9.846154 25.6 0 35.446154l-256 256c-11.815385 9.846154-25.6 9.846154-37.415384-1.969231l-43.323077-43.323076c-11.815385-11.815385-13.784615-29.538462-1.969231-41.353847l96.492308-96.492307c13.784615-13.784615 17.723077-25.6 1.969231-33.476923-5.907692-1.969231-21.661538-1.969231-21.661539-1.969231H425.353846c-139.815385 0-252.061538 112.246154-252.061538 252.061538s112.246154 252.061538 252.061538 252.061539h159.507692c15.753846 0 27.569231 13.784615 27.569231 29.538461V964.923077c0 15.753846-9.846154 27.569231-25.6 27.569231h-161.476923C220.553846 992.492308 53.169231 827.076923 53.169231 620.307692s167.384615-372.184615 372.184615-372.184615l273.723077-1.969231z"  /></svg>