<?xml version="1.0" encoding="UTF-8"?>
<svg id="Layer_2" data-name="Layer 2" xmlns="http://www.w3.org/2000/svg" viewBox="0 0 176 176">
  <defs>
    <style>
      .cls-1 {
        fill: #337dff;
      }

      .cls-2 {
        fill: #0e2e66;
        stroke: #337dff;
        stroke-miterlimit: 10;
        stroke-width: 3px;
      }
    </style>
  </defs>
  <g id="Layer_1-2" data-name="Layer 1">
    <path class="cls-2" d="M1.5,88C1.5,7.55,7.55,1.5,88,1.5s86.5,6.05,86.5,86.5-6.05,86.5-86.5,86.5S1.5,168.45,1.5,88"/>
    <path class="cls-1" d="M139.81,27.46c-10.33-7.8-24.83-11.7-43.5-11.7H54.24c-1.54,0-2.44,1.74-1.54,3l13.6,18.95c.51,.72,.47,1.7-.12,2.36l-14.45,16.34c-.61,.69-.63,1.73-.05,2.45l14.51,17.83c.62,.77,.55,1.88-.16,2.57l-13.9,13.21c-.74,.71-.79,1.88-.1,2.64l14.09,15.63c.67,.75,.64,1.89-.07,2.6l-13.7,13.74c-.78,.78-.73,2.07,.12,2.78l13.44,11.36c.82,.7,.9,1.94,.17,2.73l-10.15,7.15c-1.46,1.03-.75,3.32,1.04,3.34l26.84,.33c1.04,0,1.89-.85,1.89-1.89v-41.02c0-1.04,.85-1.89,1.89-1.89h12.31c16.93,0,30.4-4.1,40.4-12.3,10-8.2,15-20.17,15-35.9s-5.17-26.5-15.5-34.3Zm-27.6,50.9c-3.53,3.47-8.77,5.2-15.7,5.2h-8.91c-1.04,0-1.89-.85-1.89-1.89V43.65c0-1.04,.85-1.89,1.89-1.89h8.11c14.53,0,21.8,6.73,21.8,20.2,0,7.47-1.77,12.93-5.3,16.4Z"/>
    <rect class="cls-1" x="34.14" y="15.76" width="14.66" height="139" rx="2.74" ry="2.74"/>
  </g>
</svg>